<?xml version="1.0" encoding="UTF-8" standalone="no"?>
<!-- Created with Inkscape (http://www.inkscape.org/) -->

<svg
   xmlns:dc="http://purl.org/dc/elements/1.1/"
   xmlns:cc="http://creativecommons.org/ns#"
   xmlns:rdf="http://www.w3.org/1999/02/22-rdf-syntax-ns#"
   xmlns:svg="http://www.w3.org/2000/svg"
   xmlns="http://www.w3.org/2000/svg"
   version="1.1"
   width="921.74609"
   height="805.95996"
   id="svg2">
  <title
     id="title4644">Cute Cloud with Rainbow</title>
  <defs
     id="defs4">
    <filter
       x="-0.48000002"
       y="-0.48000002"
       width="1.96"
       height="1.96"
       color-interpolation-filters="sRGB"
       id="filter3941">
      <feGaussianBlur
         id="feGaussianBlur3943"
         stdDeviation="13.142858" />
    </filter>
  </defs>
  <metadata
     id="metadata7">
    <rdf:RDF>
      <cc:Work
         rdf:about="">
        <dc:format>image/svg+xml</dc:format>
        <dc:type
           rdf:resource="http://purl.org/dc/dcmitype/StillImage" />
        <dc:title>Cute Cloud with Rainbow</dc:title>
        <dc:date>2013-05-30</dc:date>
        <dc:creator>
          <cc:Agent>
            <dc:title>Urs Roesch</dc:title>
          </cc:Agent>
        </dc:creator>
        <cc:license
           rdf:resource="http://creativecommons.org/licenses/publicdomain/" />
        <dc:rights>
          <cc:Agent>
            <dc:title />
          </cc:Agent>
        </dc:rights>
        <dc:publisher>
          <cc:Agent>
            <dc:title>Open Clipart</dc:title>
          </cc:Agent>
        </dc:publisher>
        <dc:identifier />
        <dc:language>en</dc:language>
        <dc:subject>
          <rdf:Bag>
            <rdf:li>Cute</rdf:li>
            <rdf:li>Cloud</rdf:li>
            <rdf:li>Rainbow</rdf:li>
          </rdf:Bag>
        </dc:subject>
        <dc:description>Cute cloud with rainbow</dc:description>
      </cc:Work>
      <cc:License
         rdf:about="http://creativecommons.org/licenses/publicdomain/">
        <cc:permits
           rdf:resource="http://creativecommons.org/ns#Reproduction" />
        <cc:permits
           rdf:resource="http://creativecommons.org/ns#Distribution" />
        <cc:permits
           rdf:resource="http://creativecommons.org/ns#DerivativeWorks" />
      </cc:License>
    </rdf:RDF>
  </metadata>
  <g
     transform="translate(159,148.88118)"
     id="layer3"
     style="display:inline">
    <g
       id="g4357">
      <path
         d="m 606.09375,4.6875 0,93.15625 c 28.21954,4.88343 55.89967,12.80045 82.40625,23.71875 85.6527,35.0202 156.63338,98.50849 213.59375,170.34375 61.47148,77.93156 109.13695,165.52871 148.75005,256.375 l 81.25,-43.375 C 1102.6216,438.41241 1069.21,373.78284 1029.7812,312.40625 967.09031,214.267 886.15491,125.40775 784.59375,66.71875 729.85565,34.911621 668.84561,13.580174 606.09375,4.6875 z"
         transform="translate(-765.09375,-153.56868)"
         id="path4034"
         style="fill:#ff5555;stroke:none" />
      <path
         d="m 606.09375,58.25 0,93.3125 c 26.13893,4.93973 51.78381,12.51405 76.40625,22.65625 85.6527,35.0202 156.63338,98.50849 213.59375,170.34375 52.42622,66.46426 94.7815,139.98353 130.68745,216.53125 l 81.0938,-43.25 c -24.8994,-52.52712 -52.5655,-103.67162 -84.0938,-152.75 C 961.09031,266.9545 880.15491,178.064 778.59375,119.375 725.60821,88.586248 666.72477,67.628315 606.09375,58.25 z"
         transform="translate(-765.09375,-153.56868)"
         id="path4132"
         style="fill:#ff9955;stroke:none" />
      <path
         d="m 606.09375,111.90625 0,93.53125 c 24.06408,4.93358 47.66819,12.10274 70.40625,21.46875 85.6527,35.02016 156.63338,98.47724 213.59375,170.3125 43.39883,55.01963 79.90927,114.88002 111.56245,177.28125 l 80.9688,-43.1875 C 1062.8657,492.49154 1041.4118,454.53436 1017.7812,417.75 955.09031,319.61075 874.15491,230.7515 772.59375,172.0625 c -51.23738,-29.77293 -107.98586,-50.34812 -166.5,-60.15625 z"
         transform="translate(-765.09375,-153.56868)"
         id="path4134"
         style="fill:#ffdd55;stroke:none" />
      <path
         d="m 606.09375,165.59375 0,93.78125 c 21.98819,4.86475 43.56022,11.60084 64.40625,20.1875 85.6527,35.02015 156.63338,98.50849 213.59375,170.34375 34.37195,43.57564 64.41841,90.18572 91.15625,138.6875 l 80.9688,-43.1875 c -13.9581,-25.45129 -28.6963,-50.49644 -44.4376,-75 C 949.09031,372.267 868.15491,283.40776 766.59375,224.71875 c -49.48579,-28.75512 -104.10734,-48.94051 -160.5,-59.125 z"
         transform="translate(-765.09375,-153.56868)"
         id="path4136"
         style="fill:#80ff80;stroke:none" />
      <path
         d="m 606.09375,219.34375 0,94.0625 c 19.91553,4.73286 39.45735,11.00728 58.40625,18.8125 85.65269,35.02015 156.63338,98.50849 213.59375,170.34375 25.34206,32.12785 48.32771,65.90843 69.375,100.875 L 1028.625,560.125 c -7.3912,-12.46803 -14.9927,-24.80992 -22.8438,-37.03125 C 943.09031,424.9545 862.15491,336.064 760.59375,277.375 c -47.72734,-27.73333 -100.23667,-47.52321 -154.5,-58.03125 z"
         transform="translate(-765.09375,-153.56868)"
         id="path4138"
         style="fill:#55ddff;stroke:none" />
      <path
         d="m 606.09375,273.25 0,94.3125 c 17.84313,4.53711 35.36366,10.32376 52.40625,17.34375 85.65269,35.02015 156.63338,98.47724 213.59375,170.3125 16.28681,20.64789 31.60961,41.98797 46.0625,63.875 l 81.5,-43.53125 c -62.67406,-98.06415 -143.56671,-186.84878 -245.0625,-245.5 -45.96671,-26.71027 -96.3673,-46.0346 -148.5,-56.8125 z"
         transform="translate(-765.09375,-153.56868)"
         id="path4140"
         style="fill:#3771c8;stroke:none" />
      <path
         d="m 606.09375,327.1875 0,61.90625 c 53.55293,10.60399 105.35953,30.23269 152.5,57.625 70.82996,40.9304 131.61738,96.55157 183.1875,159.75 l 27.4375,-14.625 c -58.84679,-83.45507 -131.84951,-157.82444 -220.625,-209.125 -44.20147,-25.68452 -92.50124,-44.53671 -142.5,-55.53125 z"
         transform="translate(-765.09375,-153.56868)"
         id="path4142"
         style="fill:#8d5fd3;stroke:none" />
    </g>
  </g>
  <g
     transform="translate(159,148.88118)"
     id="layer1"
     style="display:inline">
    <g
       id="g3947">
      <path
         d="m 367.1875,114.375 c -49.32552,0.018 -96.44689,31.944 -115.6875,77.0625 -32.49163,-23.42674 -77.99387,-21.84304 -112.46402,-3.50477 -33.60828,16.49907 -62.206316,48.19205 -66.00473,86.62977 -0.777919,10.21315 1.187682,20.39343 3.75,30.21875 -40.834758,20.7196 -65.690858,71.46906 -52.151464,116.23947 6.332189,20.41754 21.323815,37.58395 39.901464,47.69803 -15.576969,25.55793 -25.564615,58.05122 -15.112755,87.43449 11.440461,29.49085 44.266282,45.83911 74.925255,44.50301 16.77162,-0.0681 33.3371,-3.88965 49.0625,-9.53125 34.19627,52.14338 103.92587,78.16361 163.92103,60.38228 23.62528,-7.70252 44.8806,-22.89414 59.17272,-43.22603 46.63512,31.73244 110.73619,31.14959 159.90625,5.375 33.66992,-18.24872 59.81029,-53.43931 61.23781,-92.53031 -1.29385,-4.37358 3.99633,-1.51238 6.23094,-2.68844 61.63111,-6.79663 111.99247,-65.41296 109.5,-127.46875 0.3828,-5.60931 -3.11709,-13.312 3.09375,-16.5625 27.94602,-25.11535 34.48713,-70.43886 15.34375,-102.6875 -17.18424,-32.39745 -52.4273,-53.96162 -88.9375,-55.5 -2.65325,-46.03264 -38.92261,-86.05735 -83.05787,-97.14048 -43.85765,-12.28005 -94.5934,0.2331 -125.87963,33.45298 -20.90122,-25.3332 -54.08149,-39.07584 -86.75,-38.15625 z"
         id="path3113"
         style="fill:#999999;stroke:none" />
      <path
         d="m 369.60643,126.35341 c -47.27227,-0.21813 -97.01802,29.41274 -112.46875,86.1875 -66.7385,-72.82115 -206.979849,18.74715 -164.281252,98.25 -70.966954,27.23823 -84.3643932,126.51036 -10.5625,152.46875 -67.130614,97.72349 11.29622,151.39941 96.062502,112.65625 35.76322,71.25204 164.57469,105.13417 214.84375,14.5625 64.71229,59.46418 216.83261,29.88013 212.875,-83.59375 63.10381,4.18438 126.95951,-57.55897 113.46875,-134.4375 67.19667,-47.91601 17.43032,-149.70345 -68.84375,-143.8125 5.2658,-97.71019 -130.93054,-142.550223 -197.84375,-56.5625 -17.98431,-30.62471 -49.99118,-45.56528 -83.25,-45.71875 z"
         id="path3003"
         style="fill:#d5e5ff;stroke:none" />
      <path
         d="m 286.88332,381.62088 a 14.142136,14.142136 0 1 1 -28.28428,0 14.142136,14.142136 0 1 1 28.28428,0 z"
         transform="translate(6,0)"
         id="path3127"
         style="fill:#999999;fill-opacity:1;stroke:none" />
      <path
         d="m 286.88332,381.62088 a 14.142136,14.142136 0 1 1 -28.28428,0 14.142136,14.142136 0 1 1 28.28428,0 z"
         transform="translate(246.47722,-18.162441)"
         id="path3129"
         style="fill:#999999;fill-opacity:1;stroke:none" />
      <path
         d="m 464.15625,434 -9.25,2.125 -0.625,0.78125 c 0.85555,10.78659 -5.9e-4,21.85851 -3.6875,32 -5.21629,18.7315 -26.60152,27.8521 -44.71875,24.5 -23.82173,-3.29559 -39.60466,-25.58497 -45.46875,-47.25 L 350.75,448.375 c 6.20282,21.71833 18.99925,42.51039 40.375,51.28125 20.053,7.76634 46.52416,5.2441 60.5625,-12.21875 11.57892,-14.961 14.02604,-34.80875 12.46875,-53.4375 z"
         id="path3131"
         style="fill:#999999;stroke:none" />
      <path
         d="m 277.14286,513.79077 a 32.857143,32.857143 0 1 1 -65.71428,0 32.857143,32.857143 0 1 1 65.71428,0 z"
         transform="translate(11.428571,-14.285714)"
         id="path3159"
         style="fill:#ffaaaa;fill-opacity:1;stroke:none;filter:url(#filter3941)" />
      <path
         d="m 277.14286,513.79077 a 32.857143,32.857143 0 1 1 -65.71428,0 32.857143,32.857143 0 1 1 65.71428,0 z"
         transform="translate(348.57143,-77.142857)"
         id="path3945"
         style="fill:#ffaaaa;fill-opacity:1;stroke:none;filter:url(#filter3941)" />
    </g>
  </g>
</svg>
